<svg width="26" height="26" viewBox="0 0 26 26" fill="none" xmlns="http://www.w3.org/2000/svg">
<path fill-rule="evenodd" clip-rule="evenodd" d="M5 5.00003V3.22269C5 1.99468 5.99468 1 7.22269 1H22.7788C24.0055 1 25.0002 1.99468 25.0002 3.22269V18.7788C25.0002 20.0055 24.0055 21.0002 22.7775 21.0002H21.0001" fill="#0B1357"/>
<path d="M5 5.00003V3.22269C5 1.99468 5.99468 1 7.22269 1H22.7788C24.0055 1 25.0002 1.99468 25.0002 3.22269V18.7788C25.0002 20.0055 24.0055 21.0002 22.7775 21.0002H21.0001" stroke="#0B1357" stroke-width="1.5" stroke-linecap="round" stroke-linejoin="round"/>
<path fill-rule="evenodd" clip-rule="evenodd" d="M18.7775 25H3.22269C1.99468 25 1 24.0054 1 22.7774V7.22256C1 5.99455 1.99468 4.99988 3.22269 4.99988H18.7788C20.0055 4.99988 21.0002 5.99455 21.0002 7.22256V22.7787C21.0002 24.0054 20.0055 25 18.7775 25Z" fill="#0B1357" stroke="#0B1357" stroke-width="1.5" stroke-linecap="round" stroke-linejoin="round"/>
<path fill-rule="evenodd" clip-rule="evenodd" d="M15.3325 21.6633H6.66932C6.30128 21.6633 6.00293 21.3649 6.00293 20.9969V20.4558C6.00732 18.9163 7.25426 17.6693 8.79379 17.6649H13.208C14.7475 17.6693 15.9945 18.9163 15.9988 20.4558V20.9969C15.9988 21.3649 15.7005 21.6633 15.3325 21.6633Z" fill="white"/>
<path fill-rule="evenodd" clip-rule="evenodd" d="M11.0005 14.3326C9.52975 14.3326 8.33692 13.1414 8.33496 11.6706C8.33301 10.1998 9.52268 9.0054 10.9934 9.00147C12.4642 8.99757 13.6602 10.1856 13.6661 11.6564C13.6689 12.3652 13.3893 13.0459 12.8891 13.5481C12.3889 14.0503 11.7093 14.3326 11.0005 14.3326Z" fill="white"/>
</svg>
