<svg width="30" height="28" viewBox="0 0 30 28" fill="none" xmlns="http://www.w3.org/2000/svg">
<path d="M26.25 3.5H22.0406C21.0078 1.46562 18.2578 0 15 0C11.7422 0 8.99219 1.46562 7.96094 3.5H3.75C1.67969 3.5 0 4.67469 0 6.125V25.375C0 26.8242 1.67969 28 3.75 28H26.25C28.3203 28 30 26.8253 30 25.375V6.125C30 4.67469 28.3203 3.5 26.25 3.5ZM15 3.5C16.3805 3.5 17.5 4.28367 17.5 5.25C17.5 6.21633 16.3805 7 15 7C13.6195 7 12.5 6.21797 12.5 5.25C12.5 4.28203 13.6172 3.5 15 3.5ZM22.1016 14.3719L15.2266 20.4969C14.9104 20.7788 14.4437 20.9583 13.9352 20.9925C13.875 20.9508 13.8125 21 13.75 21C13.3045 21 12.8711 20.8889 12.5297 20.6839L8.15469 18.0589C7.36875 17.5872 7.27813 16.7584 7.95203 16.2082C8.62461 15.6581 9.80906 15.5946 10.5958 16.0664L13.4848 17.7994L19.1505 12.7529C19.7902 12.1819 20.9708 12.0846 21.7833 12.5307C22.6016 12.9773 22.7422 13.8031 22.1016 14.3719Z" fill="#0B1357"/>
</svg>
