<svg width="31" height="31" viewBox="0 0 31 31" fill="none" xmlns="http://www.w3.org/2000/svg">
<path d="M26.1562 3.875H12.5938C12.0609 3.875 11.625 4.30852 11.625 4.84375V5.8125H7.75V4.84375C7.75 2.16879 9.91758 0 12.5938 0H26.1562C28.8324 0 31 2.16879 31 4.84375V18.4062C31 21.0824 28.8324 23.25 26.1562 23.25H25.1875V19.375H26.1562C26.6891 19.375 27.125 18.9391 27.125 18.4062V4.84375C27.125 4.30852 26.6891 3.875 26.1562 3.875ZM0 11.625C0 9.4877 1.73467 7.75 3.875 7.75H19.375C21.5123 7.75 23.25 9.4877 23.25 11.625V27.125C23.25 29.2623 21.5123 31 19.375 31H3.875C1.73467 31 0 29.2623 0 27.125V11.625ZM5.8125 15.5H17.4375C18.5092 15.5 19.375 14.6342 19.375 13.5625C19.375 12.4908 18.5092 11.625 17.4375 11.625H5.8125C4.74264 11.625 3.875 12.4908 3.875 13.5625C3.875 14.6342 4.74264 15.5 5.8125 15.5Z" fill="#0B1357"/>
</svg>
