<svg width="30" height="27" viewBox="0 0 30 27" fill="none" xmlns="http://www.w3.org/2000/svg">
<path d="M26.6667 1.6875H3.33333C1.49219 1.6875 0 3.19834 0 5.0625V21.9375C0 23.8017 1.49219 25.3125 3.33333 25.3125H26.6667C28.5078 25.3125 30 23.8017 30 21.9375V5.0625C30 3.19834 28.5052 1.6875 26.6667 1.6875ZM9.16667 6.75C11.0078 6.75 12.5 8.26084 12.5 10.125C12.5 11.9892 11.0078 13.5 9.16667 13.5C7.32552 13.5 5.83333 11.9892 5.83333 10.125C5.83333 8.26084 7.32812 6.75 9.16667 6.75ZM14.1667 20.25H4.16667C3.70625 20.25 3.33333 19.8703 3.33333 19.4062C3.33333 17.0754 5.19896 15.1875 7.5 15.1875H10.8333C13.1344 15.1875 15 17.0764 15 19.4062C15 19.8703 14.625 20.25 14.1667 20.25ZM25.8333 16.875H19.1667C18.7083 16.875 18.3333 16.4953 18.3333 16.0312C18.3333 15.5672 18.7083 15.1875 19.1667 15.1875H25.8333C26.2917 15.1875 26.6667 15.5672 26.6667 16.0312C26.6667 16.4953 26.2917 16.875 25.8333 16.875ZM25.8333 13.5H19.1667C18.7083 13.5 18.3333 13.1203 18.3333 12.6562C18.3333 12.1922 18.7083 11.8125 19.1667 11.8125H25.8333C26.2917 11.8125 26.6667 12.1922 26.6667 12.6562C26.6667 13.1203 26.2917 13.5 25.8333 13.5ZM25.8333 10.125H19.1667C18.7083 10.125 18.3333 9.74531 18.3333 9.28125C18.3333 8.81719 18.7083 8.4375 19.1667 8.4375H25.8333C26.2917 8.4375 26.6667 8.81719 26.6667 9.28125C26.6667 9.74531 26.2917 10.125 25.8333 10.125Z" fill="#0B1357"/>
</svg>
