<svg width="30" height="29" viewBox="0 0 30 29" fill="none" xmlns="http://www.w3.org/2000/svg">
<path d="M23.7 14.9375C20.2175 14.9375 17.4 18.082 17.4 21.9688C17.4 25.8555 20.2166 29 23.7 29C27.1834 29 30 25.8564 30 21.9688C30 18.0811 27.1825 14.9375 23.7 14.9375ZM25.8 22.75H23.4266C23.1925 22.75 23 22.5352 23 22.2764V18.8438C23 18.4141 23.315 18.0625 23.7 18.0625C24.085 18.0625 24.4 18.4141 24.4 18.8438V21.1875H25.8C26.1867 21.1875 26.5 21.5372 26.5 21.9688C26.5 22.3984 26.185 22.75 25.8 22.75ZM16.0044 21.1875H11.1C10.715 21.1875 10.4 20.8359 10.4 20.4062V18.0625H2V25.0938C2 26.3438 2.98044 27.4375 4.1 27.4375H17.7588C16.6606 25.9531 16 24.0439 16 21.9688C16 21.7051 16.0219 21.4463 16.0044 21.1875ZM23.7 13.375C23.9363 13.375 24.169 13.3911 24.4 13.4144V11.0312C24.4 9.78125 23.42 8.6875 22.3 8.6875H18.8V6.34375C18.8 5.09424 17.82 4 16.7 4H9.7C8.58 4 7.6 5.09424 7.6 6.34375V8.6875H4.1C2.98044 8.6875 2 9.78125 2 11.0312V16.5H17.7588C19.1719 14.5908 21.3069 13.375 23.7 13.375ZM16.7 8.6875H9.7V6.34375H16.7V8.6875Z" fill="#0B1357"/>
</svg>
